<?xml version="1.0" standalone="no"?>
<!DOCTYPE svg PUBLIC "-//W3C//DTD SVG 20010904//EN"
 "http://www.w3.org/TR/2001/REC-SVG-20010904/DTD/svg10.dtd">
<svg version="1.0" xmlns="http://www.w3.org/2000/svg"
 width="512.000000pt" height="512.000000pt" viewBox="0 0 512.000000 512.000000"
 preserveAspectRatio="xMidYMid meet">

<g transform="translate(0.000000,512.000000) scale(0.100000,-0.100000)"
fill="#000000" stroke="none">
<path d="M2216 4758 c-15 -14 -40 -63 -62 -123 -88 -241 -228 -455 -427 -657
-114 -114 -199 -179 -447 -343 -284 -188 -415 -290 -591 -465 -215 -213 -344
-397 -428 -615 -164 -420 -170 -865 -19 -1237 99 -241 282 -463 508 -614 236
-157 581 -277 960 -335 183 -28 609 -33 780 -9 128 18 180 18 334 2 121 -13
377 -4 510 18 39 6 85 6 139 -2 134 -18 421 -5 548 25 235 56 414 154 579 317
157 156 266 333 335 546 119 361 37 670 -254 964 -53 53 -130 123 -171 156
-87 69 -346 241 -555 369 -283 173 -377 261 -391 365 -13 100 -79 154 -159
132 -39 -11 -41 -11 -69 26 -16 20 -117 125 -225 232 -271 270 -381 419 -546
745 -44 88 -109 232 -144 320 -68 174 -90 205 -146 205 -21 0 -43 -9 -59 -22z
m-120 -740 c-81 -326 -160 -530 -324 -836 -288 -536 -355 -749 -369 -1188 -15
-465 86 -969 287 -1431 66 -153 73 -143 -74 -115 l-89 17 -64 100 c-102 160
-236 440 -292 610 -114 347 -136 672 -64 943 35 131 35 146 1 150 -23 3 -28
-2 -46 -51 -66 -174 -83 -489 -42 -732 48 -282 171 -602 339 -884 34 -57 60
-106 58 -108 -3 -2 -47 10 -98 26 l-94 31 -61 92 c-178 269 -287 527 -350 820
-35 167 -45 466 -20 638 52 354 183 674 408 992 81 115 157 206 301 360 181
193 337 400 469 621 39 64 73 116 75 114 7 -7 -79 -201 -153 -347 -103 -204
-225 -389 -355 -537 -50 -57 -62 -96 -33 -107 21 -8 33 0 89 64 186 210 381
543 501 852 20 54 39 96 42 94 2 -2 -17 -87 -42 -188z m512 -720 c16 -16 47
-4 50 19 2 12 -35 176 -83 364 -47 188 -84 343 -82 345 2 2 22 -43 45 -99 23
-56 79 -169 123 -252 160 -300 241 -476 338 -741 l30 -82 -167 -88 c-92 -48
-208 -111 -259 -140 l-92 -52 -5 72 c-3 39 -10 181 -16 316 -13 292 -33 582
-60 857 -11 110 -20 205 -19 210 0 4 43 -156 94 -356 51 -200 98 -368 103
-373z m732 -379 c-71 -281 -185 -581 -362 -954 -50 -104 -104 -228 -120 -275
-129 -374 -30 -798 272 -1160 43 -52 76 -98 74 -102 -3 -5 -31 -8 -63 -8 -56
0 -63 3 -167 72 -121 81 -269 218 -344 317 -68 89 -133 219 -166 327 -25 80
-27 105 -28 249 -1 210 28 333 127 530 88 176 168 279 397 505 87 85 180 187
209 225 55 76 152 258 172 324 22 72 21 36 -1 -50z m-115 -59 c-81 -161 -138
-232 -373 -467 -135 -135 -184 -191 -245 -283 -163 -247 -237 -472 -237 -720
0 -357 181 -672 528 -920 l87 -62 -105 7 c-97 6 -111 10 -180 47 -187 100
-381 261 -490 408 -255 345 -239 790 43 1174 85 115 233 257 372 356 166 117
336 256 495 403 74 69 136 126 138 126 1 1 -14 -31 -33 -69z m339 -287 c25
-88 74 -250 110 -359 135 -417 151 -495 151 -774 0 -225 -11 -305 -65 -469
-39 -121 -90 -225 -160 -329 -70 -103 -155 -200 -166 -190 -7 8 21 2011 32
2318 l7 165 23 -101 c12 -55 43 -173 68 -261z m-175 -723 c-10 -575 -20 -1126
-21 -1225 l-3 -180 -36 -3 c-34 -3 -41 2 -104 71 -228 252 -365 564 -365 834
0 160 48 340 140 522 152 304 324 739 390 990 6 23 12 41 14 40 1 -2 -6 -474
-15 -1049z m388 829 c87 -102 161 -170 334 -311 265 -217 432 -478 480 -752
19 -112 7 -303 -26 -406 -92 -285 -301 -518 -646 -719 l-105 -61 -84 0 -84 0
77 52 c574 396 726 961 416 1558 -70 135 -148 247 -277 396 -106 123 -170 227
-212 343 -17 45 -30 84 -30 88 0 3 17 -16 37 -43 20 -27 74 -92 120 -145z
m-137 -29 c46 -92 95 -161 194 -275 560 -646 533 -1323 -72 -1789 -77 -58
-233 -158 -240 -152 -2 3 18 31 45 63 142 165 243 377 295 616 19 87 22 133
23 317 0 136 -5 242 -13 290 -20 114 -67 293 -107 410 -71 208 -207 678 -204
707 0 4 11 -21 23 -57 13 -36 38 -94 56 -130z m385 -8 c353 -221 473 -309 616
-453 335 -337 376 -725 123 -1164 -154 -265 -362 -438 -637 -530 -119 -40
-152 -42 -91 -5 84 51 223 162 301 242 104 106 170 197 221 301 84 170 107
280 99 476 -6 162 -31 261 -106 416 -96 197 -224 347 -456 536 -125 102 -253
227 -326 320 l-34 44 30 -20 c17 -11 134 -84 260 -163z m-1090 78 c-10 -16
-233 -192 -340 -267 -127 -91 -232 -183 -312 -275 -377 -434 -420 -950 -113
-1356 73 -98 204 -222 308 -293 107 -73 108 -74 13 -40 -254 93 -435 268 -571
553 -87 183 -120 316 -120 484 0 140 23 235 89 369 133 268 386 480 906 759
152 82 149 80 140 66z"/>
</g>
</svg>
